<svg xmlns="http://www.w3.org/2000/svg" xmlns:xlink="http://www.w3.org/1999/xlink" width="35px" height="32px" viewBox="0 0 35 32"><title>Icons/Fill/Fill Icon 1</title><desc>Created with Sketch.</desc><g id="Symbols" stroke="none" stroke-width="1" fill="none" fill-rule="evenodd"><g id="Section/Multi-Column-With-Icon/Example-2" transform="translate(-754.000000, -293.000000)"><g id="Section/Content/Left-Graphic-Multi-Colums-1"><g id="Section--1" transform="translate(752.000000, 289.000000)"><g id="Icons/Fill/Fill-Icon-1"><g id="Sections/Multi-Colums--Icon-1"><rect id="Icon-bound" x="0" y="0" width="40" height="40"></rect><g id="Icon" transform="translate(2.000000, 4.000000)"><path d="M29.75,3.5 L31.5,3.5 C33.43375,3.5 35,5.06625 35,7 L35,28 C35,29.93375 33.43375,31.5 31.5,31.5 L3.5,31.5 C1.56625,31.5 0,29.93375 0,28 L0,7 C0,5.06625 1.56625,3.5 3.5,3.5 L5.25,3.5 L10.1240635,18.8134022 L26.0239506,18.8134022 L29.75,3.5 Z" id="Path" fill="#FE6F4B"></path><path d="M12.25,-2.22044605e-13 C14.4924247,-2.22044605e-13 15.4376508,1.25322658 16.4999818,3.28015954 L16.5,15.9044433 L16.5067277,16.0210644 C16.5644928,16.5184031 16.9871642,16.9044433 17.5,16.9044433 C18.0522847,16.9044433 18.5,16.456728 18.5,15.9044433 L18.5,15.9044433 L18.5010829,3.37462036 C19.5445126,1.43377495 20.5238398,-2.22044605e-13 22.75,-2.22044605e-13 L22.75,-2.22044605e-13 L28,-2.22044605e-13 C28.966,-2.22044605e-13 29.75,0.784 29.75,1.75 L29.75,1.75 L29.75,24.5 C29.75,25.466 28.966,26.25 28,26.25 L28,26.25 L22.75,26.25 C19.85025,26.25 18.5099115,27.2443048 17.5,28.7904036 C15.8615886,26.2514685 15.14975,26.25 12.25,26.25 L12.25,26.25 L7,26.25 C6.034,26.25 5.25,25.466 5.25,24.5 L5.25,24.5 L5.25,1.75 C5.25,0.784 6.034,-2.22044605e-13 7,-2.22044605e-13 L7,-2.22044605e-13 Z" id="Combined-Shape" fill="#003E85"></path></g></g></g></g></g></g></g></svg>