<svg xmlns="http://www.w3.org/2000/svg" xmlns:xlink="http://www.w3.org/1999/xlink" width="31px" height="34px" viewBox="0 0 31 34"><title>Icons/Fill/Fill Icon 3</title><desc>Created with Sketch.</desc><g id="Symbols" stroke="none" stroke-width="1" fill="none" fill-rule="evenodd"><g id="Section/Multi-Column-With-Icon/Example-2" transform="translate(-757.000000, -626.000000)"><g id="Section/Content/Left-Graphic-Multi-Colums-1"><g id="Section--3" transform="translate(752.000000, 623.000000)"><g id="Icons/Fill/Fill-Icon-3"><g id="Icon"><path d="M32.0935961,3 C33.9647475,3 35.4802956,4.51554803 35.4802956,6.38669951 L35.4802956,29.0352525 C35.4802956,30.9064039 33.9647475,32.421952 32.0935961,32.421952 L22.1967434,32.4226049 C24.10756,31.7196797 25.4705247,29.8833042 25.4705247,27.7285913 C25.4705247,24.9671676 23.2319485,22.7285913 20.4705247,22.7285913 C17.709101,22.7285913 15.4705247,24.9671676 15.4705247,27.7285913 C15.4705247,29.8833042 16.8334894,31.7196797 18.744306,32.4226049 L8.38669951,32.421952 C6.51554803,32.421952 5,30.9064039 5,29.0352525 L5,6.38669951 C5,4.51554803 6.51554803,3 8.38669951,3 L32.0935961,3 Z M20.4705247,24.7285913 C22.127379,24.7285913 23.4705247,26.0717371 23.4705247,27.7285913 C23.4705247,29.3854456 22.127379,30.7285913 20.4705247,30.7285913 C18.8136705,30.7285913 17.4705247,29.3854456 17.4705247,27.7285913 C17.4705247,26.0717371 18.8136705,24.7285913 20.4705247,24.7285913 Z M28.7068966,15.8346675 L11.773399,15.8346675 L11.6567779,15.8413952 C11.1594392,15.8991603 10.773399,16.3218316 10.773399,16.8346675 C10.773399,17.3475033 11.1594392,17.7701746 11.6567779,17.8279398 L11.773399,17.8346675 L28.7068966,17.8346675 L28.8235177,17.8279398 C29.3208564,17.7701746 29.7068966,17.3475033 29.7068966,16.8346675 C29.7068966,16.2823827 29.2591813,15.8346675 28.7068966,15.8346675 Z M25.320197,9.06126847 L15.1600985,9.06126847 L15.0434774,9.0679962 C14.5461387,9.12576131 14.1600985,9.54843263 14.1600985,10.0612685 C14.1600985,10.5741043 14.5461387,10.9967756 15.0434774,11.0545407 L15.1600985,11.0612685 L25.320197,11.0612685 L25.4368182,11.0545407 C25.9341569,10.9967756 26.320197,10.5741043 26.320197,10.0612685 C26.320197,9.50898372 25.8724818,9.06126847 25.320197,9.06126847 Z" id="Combined-Shape" fill="#003E85"></path><path d="M25.4599411,28.0565446 L29.5144768,31.9486674 C30.2616019,32.6656992 30.2859972,33.8526329 29.5689654,34.5997579 L29.5420011,34.6272822 L29.5420011,34.6272822 L27.7482163,36.4210669 C27.0269791,37.1423042 25.8615055,37.1547073 25.1250823,36.4489827 L21.1879819,32.6775017 C23.5035301,32.3447728 25.306564,30.4254063 25.4599411,28.0565446 Z M15.4818975,28.0685127 C15.6408131,30.4356114 17.4471282,32.3513928 19.7640541,32.679068 L16.0346016,36.3967219 C15.3020805,37.1272679 14.1162763,37.1264675 13.3847421,36.3949333 L11.5912889,34.6014801 C10.8590558,33.8692471 10.8590558,32.6820627 11.5912889,31.9498297 C11.5918645,31.9492541 11.5924405,31.9486788 11.5930169,31.9481039 Z M20.4705247,24.7285913 C22.127379,24.7285913 23.4705247,26.0717371 23.4705247,27.7285913 C23.4705247,29.3854456 22.127379,30.7285913 20.4705247,30.7285913 C18.8136705,30.7285913 17.4705247,29.3854456 17.4705247,27.7285913 C17.4705247,26.0717371 18.8136705,24.7285913 20.4705247,24.7285913 Z" id="Combined-Shape" fill="#FE6F4B"></path><rect id="Icon-bound" x="0" y="0" width="40" height="40"></rect></g></g></g></g></g></g></svg>