<svg xmlns="http://www.w3.org/2000/svg" xmlns:xlink="http://www.w3.org/1999/xlink" width="37px" height="37px" viewBox="0 0 37 37"><title>Icons/Fill/Fill Icon 2</title><desc>Created with Sketch.</desc><g id="Symbols" stroke="none" stroke-width="1" fill="none" fill-rule="evenodd"><g id="Section/Multi-Column-With-Icon/Example-2" transform="translate(-753.000000, -458.000000)"><g id="Section/Content/Left-Graphic-Multi-Colums-1"><g id="Section--2" transform="translate(752.000000, 456.000000)"><g id="Icons/Fill/Fill-Icon-2"><g id="Icon"><path d="M20.8160833,16.9244621 C21.4190988,16.3214466 22.39678,16.3214466 22.9997954,16.9244621 C23.5651224,17.4897891 23.6004554,18.3844121 23.1057942,18.9909011 L22.9997954,19.1081742 L8.44391308,33.6640566 C7.84089763,34.267072 6.86321642,34.267072 6.26020097,33.6640566 C5.69487398,33.0987296 5.65954104,32.2041065 6.15420216,31.5976175 L6.26020097,31.4803444 L20.8160833,16.9244621 Z" id="Path" fill="#003E85"></path><path d="M8.92293938,22.008377 L1.7932335,20.3242593 C1.00882173,20.1389652 0.732939378,19.1651417 1.30117467,18.5948476 L6.97117467,12.9248476 C7.35205702,12.5439652 7.86882173,12.3257299 8.41029232,12.3216123 L14.8029394,12.266024" id="Path" fill="#FE6F4B"></path><path d="M21.8958772,5.52532656 C21.9764983,5.66016355 22.0869761,5.78006485 22.2252997,5.87439541 C26.8678618,9.04041789 30.8838396,13.0563957 34.0498621,17.6989578 C34.1442084,17.8373045 34.264134,17.9477961 34.3989985,18.0284207 C33.9452644,18.7150361 33.421549,19.3566542 32.8341158,19.943377 L32.8341158,19.943377 L26.2685276,26.5089652 C23.7629394,29.0145534 20.5141158,30.6472005 17.0079394,31.1598476 L17.0079394,31.1598476 L16.8576453,31.1824946 C14.6197041,31.5098476 12.3591158,30.7604358 10.7614688,29.1627887 L10.7614688,29.1627887 L10.5661972,28.9594433 C9.10323656,27.3749078 8.42796389,25.2113059 8.73970408,23.0666123 L8.73970408,23.0666123 L8.76235114,22.9163181 C9.27705702,19.4101417 10.9076453,16.1613181 13.4132335,13.6557299 L13.4132335,13.6557299 L19.9808806,7.09014167 C20.5477433,6.52259265 21.1658479,6.01452076 21.8253577,5.57118742 Z M34.2052923,2.06661226 C36.3835276,1.61367108 38.3105864,3.54072991 37.8576453,5.7189652 L37.8576453,5.7189652 L36.1941158,13.7236711 C36.0384018,14.4727997 35.8142842,15.2021765 35.526322,15.9032784 C32.2611766,11.2563129 28.1781562,7.22838488 23.4846967,4.02765264 L24.0207003,4.39805012 C24.7218876,4.11003279 25.4513585,3.88587639 26.2005864,3.73014167 L26.2005864,3.73014167 Z" id="Combined-Shape" fill="#003E85"></path><path d="M17.9138217,31.0013181 L19.5979394,38.131024 C19.7832335,38.9154358 20.757057,39.1913181 21.3273511,38.6230828 L26.9973511,32.9530828 C27.3782335,32.5722005 27.5964688,32.0554358 27.6005864,31.5139652 L27.6561747,25.1213181" id="Path" fill="#FE6F4B"></path><rect id="Icon-bound" x="0" y="0" width="40" height="40"></rect></g></g></g></g></g></g></svg>