<svg xmlns="http://www.w3.org/2000/svg" xmlns:xlink="http://www.w3.org/1999/xlink" width="28px" height="28px" viewBox="0 0 28 28"><title>icon</title><desc>Created with Sketch.</desc><g id="Page-1" stroke="none" stroke-width="1" fill="none" fill-rule="evenodd"><g id="Feature-list" transform="translate(-138.000000, -2677.000000)"><g id="Section-/-Feature-list-/-Example-2" transform="translate(0.000000, 2170.000000)"><g id="Icon-Skills-and-certifica-3" transform="translate(135.000000, 481.000000)"><g id="icon" transform="translate(0.000000, 23.000000)"><path d="M23.8198333,11.3333333 L23.8198333,5.66666667 C23.8198333,4.88466667 23.1851667,4.25 22.4031667,4.25 L11.5968333,4.25 C10.8148333,4.25 10.1801667,4.88466667 10.1801667,5.66666667 L10.1801667,11.3333333" id="Path" stroke="#003E85" stroke-width="2.125" stroke-linecap="round" stroke-linejoin="round"></path><line x1="24.0833333" y1="15.5833333" x2="25.5" y2="15.5833333" id="Path" stroke="#003E85" stroke-width="2.125" stroke-linecap="round" stroke-linejoin="round"></line><path d="M9.91666667,24.0833333 L5.66666667,24.0833333 C4.88466667,24.0833333 4.25,23.4486667 4.25,22.6666667 L4.25,12.75 C4.25,11.968 4.88466667,11.3333333 5.66666667,11.3333333 L28.3333333,11.3333333 C29.1153333,11.3333333 29.75,11.968 29.75,12.75 L29.75,22.6666667 C29.75,23.4486667 29.1153333,24.0833333 28.3333333,24.0833333 L24.0833333,24.0833333" id="Path" stroke="#003E85" stroke-width="2.125" stroke-linecap="round" stroke-linejoin="round"></path><path d="M22.6666667,29.75 L11.3333333,29.75 C10.5513333,29.75 9.91666667,29.1153333 9.91666667,28.3333333 L9.91666667,19.8333333 L24.0833333,19.8333333 L24.0833333,28.3333333 C24.0833333,29.1153333 23.4486667,29.75 22.6666667,29.75 Z" id="Path" stroke="#003E85" stroke-width="2.125" stroke-linecap="round" stroke-linejoin="round"></path><polygon id="Path" points="0 0 34 0 34 34 0 34"></polygon></g></g></g></g></g></svg>