<svg xmlns="http://www.w3.org/2000/svg" xmlns:xlink="http://www.w3.org/1999/xlink" width="28px" height="27px" viewBox="0 0 28 27"><title>icon</title><desc>Created with Sketch.</desc><g id="Page-1" stroke="none" stroke-width="1" fill="none" fill-rule="evenodd"><g id="Feature-list" transform="translate(-551.000000, -2517.000000)"><g id="Section-/-Feature-list-/-Example-2" transform="translate(0.000000, 2170.000000)"><g id="Icon-Forums--and-webnars" transform="translate(548.000000, 321.000000)"><g id="icon" transform="translate(0.000000, 23.000000)"><polygon id="Path" points="0 0 34 0 34 34 0 34"></polygon><path d="M22.6666667,24.0833333 L5.66666667,24.0833333 C4.88466667,24.0833333 4.25,23.4486667 4.25,22.6666667 L4.25,11.3333333 C4.25,10.5513333 4.88466667,9.91666667 5.66666667,9.91666667 L22.6666667,9.91666667 C23.4486667,9.91666667 24.0833333,10.5513333 24.0833333,11.3333333 L24.0833333,22.6666667 C24.0833333,23.4486667 23.4486667,24.0833333 22.6666667,24.0833333 Z" id="Path" stroke="#003E85" stroke-width="2.125" stroke-linecap="round" stroke-linejoin="round"></path><line x1="9.20833333" y1="28.3333333" x2="19.125" y2="28.3333333" id="Path" stroke="#003E85" stroke-width="2.125" stroke-linecap="round" stroke-linejoin="round"></line><path d="M23.7291667,28.3333333 L28.3333333,28.3333333 C29.1153333,28.3333333 29.75,27.6986667 29.75,26.9166667 L29.75,5.66666667 C29.75,4.88466667 29.1153333,4.25 28.3333333,4.25 L19.125,4.25 C18.343,4.25 17.7083333,4.88466667 17.7083333,5.66666667 L17.7083333,8.76491667" id="Path" stroke="#003E85" stroke-width="2.125" stroke-linecap="round" stroke-linejoin="round"></path><line x1="14.1666667" y1="24.0833333" x2="14.1666667" y2="28.3333333" id="Path" stroke="#003E85" stroke-width="2.125" stroke-linecap="round" stroke-linejoin="round"></line></g></g></g></g></g></svg>