<svg xmlns="http://www.w3.org/2000/svg" xmlns:xlink="http://www.w3.org/1999/xlink" width="28px" height="28px" viewBox="0 0 28 28"><title>icon</title><desc>Created with Sketch.</desc><g id="Page-1" stroke="none" stroke-width="1" fill="none" fill-rule="evenodd"><g id="Feature-list" transform="translate(-138.000000, -2597.000000)"><g id="Section-/-Feature-list-/-Example-2" transform="translate(0.000000, 2170.000000)"><g transform="translate(135.000000, 401.000000)"><g id="icon" transform="translate(0.000000, 23.000000)"><g id="Group"><polygon id="Path" transform="translate(17.000000, 17.000000) rotate(90.000000) translate(-17.000000, -17.000000) " points="-2.51650552e-15 0 34 0 34 34 -2.51650552e-15 34"></polygon><path d="M21.0066086,4.97931869 C23.2195624,11.6181659 23.2195624,22.3819101 21.0066086,29.0207715 C18.7936549,35.6596186 15.2057543,35.6596186 12.9928147,29.0207715 C10.7798609,22.3819243 10.7798609,11.61818 12.9928147,4.97931869 C15.2057684,-1.65952847 18.793669,-1.65952847 21.0066086,4.97931869" id="Path" stroke="#003E85" stroke-width="2.125" stroke-linecap="round" stroke-linejoin="round" transform="translate(16.999712, 17.000045) rotate(-45.000000) translate(-16.999712, -17.000045) "></path><path d="M29.020438,12.993098 C35.6592852,15.2060518 35.6592852,18.7939524 29.020438,21.006892 C22.3815909,23.2198458 11.6178466,23.2198458 4.97898527,21.006892 C-1.65986189,18.7939382 -1.65986189,15.2060376 4.97898527,12.993098 C11.6178324,10.7801442 22.3815767,10.7801442 29.020438,12.993098" id="Path" stroke="#003E85" stroke-width="2.125" stroke-linecap="round" stroke-linejoin="round" transform="translate(16.999712, 16.999995) rotate(-45.000000) translate(-16.999712, -16.999995) "></path></g><path d="M17.5128333,17 C17.5128333,17.29325 17.2833333,17.53125 17,17.53125 C16.7166667,17.53125 16.4871667,17.29325 16.4871667,17 C16.4871667,16.70675 16.7166667,16.46875 17,16.46875 C17.2833333,16.46875 17.5128333,16.70675 17.5128333,17" id="Path" stroke="#003E85" stroke-width="2.125" stroke-linecap="round" stroke-linejoin="round"></path></g></g></g></g></g></svg>