<svg xmlns="http://www.w3.org/2000/svg" xmlns:xlink="http://www.w3.org/1999/xlink" width="26px" height="32px" viewBox="0 0 26 32"><title>Icon</title><desc>Created with Sketch.</desc><g id="Page-1" stroke="none" stroke-width="1" fill="none" fill-rule="evenodd"><g id="Feature-list" transform="translate(-139.000000, -2515.000000)"><g id="Section-/-Feature-list-/-Example-2" transform="translate(0.000000, 2170.000000)"><g id="Icon-Online-admissions" transform="translate(135.000000, 321.000000)"><g id="Icon" transform="translate(0.000000, 23.000000)"><path d="M6.72916667,14.1695 L10.83325,14.1695 C12.3703333,14.1695 13.6155833,12.92425 13.6155833,11.3871667 L13.6155833,11.3871667 C13.6155833,10.6490833 13.3223333,9.94075 12.801,9.41941667 L10.387,7.00541667" id="Path" stroke="#003E85" stroke-width="2.125" stroke-linecap="round" stroke-linejoin="round"></path><path d="M21.77275,20.5034167 L20.0245833,17.8811667 C19.7086667,17.4065833 19.176,17.1218333 18.6050833,17.1218333 L18.6050833,17.1218333 C17.9590833,17.1218333 17.3683333,16.7563333 17.0793333,16.1783333 L16.949,15.91625 C16.7081667,15.436 16.7081667,14.87075 16.949,14.3905 L18.0639167,12.1620833 C18.3529167,11.5840833 18.9436667,11.2185833 19.5896667,11.2185833 L23.9260833,11.2185833" id="Path" stroke="#003E85" stroke-width="2.125" stroke-linecap="round" stroke-linejoin="round"></path><line x1="19.8333333" y1="31.1666667" x2="11.3333333" y2="31.1666667" id="Path" stroke="#003E85" stroke-width="2.125" stroke-linecap="round" stroke-linejoin="round"></line><path d="M5.66666667,24.0833333 L6.56766667,23.1823333 C11.5458333,28.1605 19.6208333,28.1619167 24.599,23.1823333 C29.5771667,18.2041667 29.5771667,10.1291667 24.599,5.151 C24.1159167,4.66791667 23.596,4.24575 23.0605,3.85616667 L24.0833333,2.83333333" id="Path" stroke="#003E85" stroke-width="2.125" stroke-linecap="round" stroke-linejoin="round"></path><line x1="15.5833333" y1="26.9166667" x2="15.5833333" y2="31.1666667" id="Path" stroke="#003E85" stroke-width="2.125" stroke-linecap="round" stroke-linejoin="round"></line><path d="M21.84415,7.908655 C25.3019217,11.3664267 25.3019217,16.9725733 21.84415,20.4303308 C18.3863783,23.8881025 12.7802317,23.8881025 9.32247417,20.4303308 C5.8647025,16.9725592 5.8647025,11.3664125 9.32247417,7.908655 C12.7802458,4.45088333 18.3863925,4.45088333 21.84415,7.908655" id="Path" stroke="#003E85" stroke-width="2.125" stroke-linecap="round" stroke-linejoin="round"></path><polygon id="Path" points="0 0 34 0 34 34 0 34"></polygon></g></g></g></g></g></svg>