<svg xmlns="http://www.w3.org/2000/svg" xmlns:xlink="http://www.w3.org/1999/xlink" width="26px" height="28px" viewBox="0 0 26 28"><title>Icon</title><desc>Created with Sketch.</desc><g id="Page-1" stroke="none" stroke-width="1" fill="none" fill-rule="evenodd"><g id="Feature-list" transform="translate(-552.000000, -2437.000000)"><g id="Section-/-Feature-list-/-Example-2" transform="translate(0.000000, 2170.000000)"><g transform="translate(548.000000, 241.000000)"><g id="Icon" transform="translate(0.000000, 23.000000)"><polygon id="Path" points="0 0 34 0 34 34 0 34"></polygon><polyline id="Path" stroke="#003E85" stroke-width="2.125" stroke-linecap="round" stroke-linejoin="round" points="22.6666667 12.75 22.6666667 9.91666667 19.8333333 9.91666667"></polyline><path d="M8.1855,4.25 L25.8145,4.25 C27.2056667,4.25 28.3333333,5.51791667 28.3333333,7.08333333 L28.3333333,26.9166667 C28.3333333,28.4820833 27.2056667,29.75 25.8145,29.75 L8.1855,29.75 C6.79433333,29.75 5.66666667,28.4820833 5.66666667,26.9166667 L5.66666667,7.08333333 C5.66666667,5.51791667 6.79433333,4.25 8.1855,4.25 Z" id="Path" stroke="#003E85" stroke-width="2.125" stroke-linecap="round" stroke-linejoin="round"></path><line x1="11.3333333" y1="19.125" x2="22.6666667" y2="19.125" id="Path" stroke="#003E85" stroke-width="2.125" stroke-linecap="round" stroke-linejoin="round"></line><line x1="11.3333333" y1="24.0833333" x2="17" y2="24.0833333" id="Path" stroke="#003E85" stroke-width="2.125" stroke-linecap="round" stroke-linejoin="round"></line><polyline id="Path" stroke="#003E85" stroke-width="2.125" stroke-linecap="round" stroke-linejoin="round" points="22.6666667 9.91666667 18.4166667 14.1666667 14.5718333 11.3333333 11.3333333 14.1666667"></polyline></g></g></g></g></g></svg>